<svg width="437" height="378" viewBox="0 0 437 378" fill="none" xmlns="http://www.w3.org/2000/svg">
    <path d="M113.668 369.776C104.751 370.16 96.6206 367.865 90.0926 363.122C83.5646 358.379 78.8694 351.355 76.479 342.757L8.95229 103.326C7.7119 99.0152 7.68274 94.0498 8.86779 88.9363C10.0528 83.8227 12.4097 78.744 15.6979 74.2181C18.9861 69.6923 23.088 65.8814 27.5851 63.1741C32.0822 60.4669 36.8135 58.9603 41.2964 58.8079L289.876 49.0413C298.792 48.6577 306.923 50.9526 313.451 55.6955C319.979 60.4384 324.674 67.4621 327.065 76.0606L394.591 315.492C395.832 319.802 395.861 324.768 394.676 329.881C393.491 334.995 391.134 340.074 387.846 344.599C384.557 349.125 380.456 352.936 375.959 355.643C371.461 358.351 366.73 359.857 362.247 360.01L113.668 369.776Z" fill="#FAFBFF" stroke="#473CE0" stroke-width="16" stroke-linecap="round" stroke-linejoin="round"/>
    <path d="M146.668 328.776C137.751 329.16 129.621 326.865 123.093 322.122C116.565 317.379 111.869 310.355 109.479 301.757L41.9523 62.3257C40.7119 58.0152 40.6827 53.0498 41.8678 47.9363C43.0528 42.8227 45.4097 37.7439 48.6979 33.2181C51.9861 28.6923 56.088 24.8813 60.5851 22.1741C65.0822 19.4669 69.8135 17.9602 74.2964 17.8079L322.876 8.0413C331.792 7.65765 339.923 9.9526 346.451 14.6955C352.979 19.4384 357.674 26.4621 360.065 35.0606L427.591 274.492C428.832 278.802 428.861 283.768 427.676 288.881C426.491 293.995 424.134 299.074 420.846 303.599C417.558 308.125 413.456 311.936 408.959 314.643C404.462 317.351 399.73 318.857 395.247 319.01L146.668 328.776Z" fill="white" stroke="#6459FF" stroke-width="16" stroke-linecap="round" stroke-linejoin="round"/>
    <path d="M159.345 275.302L296.743 184.306C297.824 183.58 298.833 182.574 299.67 181.387C300.508 180.199 301.146 178.871 301.522 177.531C301.897 176.228 301.98 174.961 301.76 173.876C301.544 172.847 301.023 172.06 300.269 171.624L238.17 153.481L311.497 64.8828C311.864 64.3488 312.127 63.7484 312.254 63.1558C312.38 62.5912 312.353 62.0629 312.176 61.6549C312.008 61.2304 311.72 60.9873 311.312 60.9257C310.91 60.8614 310.447 60.9805 309.994 61.2647L172.59 152.272C171.508 152.998 170.5 154.004 169.662 155.192C168.825 156.379 168.187 157.707 167.81 159.047C167.439 160.346 167.359 161.609 167.58 162.69C167.792 163.722 168.311 164.514 169.063 164.955L224.458 190.868L157.835 271.695C157.468 272.229 157.205 272.83 157.078 273.422C156.952 273.987 156.979 274.515 157.156 274.923C157.33 275.313 157.633 275.569 158.02 275.652C158.422 275.717 158.893 275.586 159.345 275.302Z" fill="white" stroke="#6A59FF" stroke-width="16"/>
</svg>
