<svg width="1713" height="390" viewBox="0 0 1713 390" fill="none" xmlns="http://www.w3.org/2000/svg">
    <path d="M113.668 375.867C104.751 376.251 96.6206 373.956 90.0926 369.213C83.5646 364.47 78.8694 357.447 76.479 348.848L8.95229 109.417C7.7119 105.106 7.68274 100.141 8.86779 95.0276C10.0528 89.914 12.4097 84.8353 15.6979 80.3094C18.9861 75.7836 23.088 71.9727 27.5851 69.2654C32.0822 66.5582 36.8135 65.0516 41.2964 64.8992L289.876 55.1326C298.792 54.749 306.923 57.0439 313.451 61.7868C319.979 66.5297 324.674 73.5534 327.065 82.1519L394.591 321.583C395.832 325.894 395.861 330.859 394.676 335.972C393.491 341.086 391.134 346.165 387.846 350.691C384.557 355.216 380.456 359.027 375.959 361.735C371.461 364.442 366.73 365.948 362.247 366.101L113.668 375.867Z" fill="#FAFBFF" stroke="#473CE0" stroke-width="16" stroke-linecap="round" stroke-linejoin="round"/>
    <path d="M146.668 334.867C137.751 335.251 129.621 332.956 123.093 328.213C116.565 323.47 111.869 316.447 109.479 307.848L41.9523 68.417C40.7119 64.1065 40.6827 59.1411 41.8678 54.0276C43.0528 48.914 45.4097 43.8353 48.6979 39.3094C51.9861 34.7836 56.088 30.9727 60.5851 28.2654C65.0822 25.5582 69.8135 24.0515 74.2964 23.8992L322.876 14.1326C331.792 13.749 339.923 16.0439 346.451 20.7868C352.979 25.5297 357.674 32.5534 360.065 41.1519L427.591 280.583C428.832 284.894 428.861 289.859 427.676 294.973C426.491 300.086 424.134 305.165 420.846 309.691C417.558 314.216 413.456 318.027 408.959 320.735C404.462 323.442 399.73 324.949 395.247 325.101L146.668 334.867Z" fill="white" stroke="#6459FF" stroke-width="16" stroke-linecap="round" stroke-linejoin="round"/>
    <path d="M159.345 281.393L296.743 190.398C297.824 189.671 298.833 188.665 299.67 187.478C300.508 186.291 301.146 184.962 301.522 183.622C301.897 182.32 301.98 181.052 301.76 179.968C301.544 178.939 301.023 178.151 300.269 177.715L238.17 159.573L311.497 70.9741C311.864 70.4401 312.127 69.8397 312.254 69.2471C312.38 68.6825 312.353 68.1542 312.176 67.7462C312.008 67.3217 311.72 67.0787 311.312 67.017C310.91 66.9527 310.447 67.0718 309.994 67.356L172.59 158.363C171.508 159.09 170.5 160.096 169.662 161.283C168.825 162.47 168.187 163.798 167.81 165.138C167.439 166.437 167.359 167.701 167.58 168.781C167.792 169.814 168.311 170.605 169.063 171.046L224.458 196.959L157.835 277.787C157.468 278.321 157.205 278.921 157.078 279.514C156.952 280.078 156.979 280.607 157.156 281.015C157.33 281.404 157.633 281.66 158.02 281.744C158.422 281.808 158.893 281.677 159.345 281.393Z" fill="white" stroke="#6A59FF" stroke-width="16"/>
    <path d="M582.553 302V89H665.653C690.653 89 710.253 95.1 724.453 107.3C738.653 119.3 745.753 136 745.753 157.4C745.753 171.4 742.553 183.6 736.153 194C729.753 204.4 720.553 212.4 708.553 218C696.553 223.4 682.253 226.1 665.653 226.1H623.053V302H582.553ZM623.053 191H663.553C676.553 191 686.453 188.2 693.253 182.6C700.253 176.8 703.753 168.4 703.753 157.4C703.753 146.4 700.253 138.1 693.253 132.5C686.453 126.9 676.553 124.1 663.553 124.1H623.053V191ZM825.419 305.6C808.619 305.6 795.119 301.8 784.919 294.2C774.719 286.4 769.619 275.6 769.619 261.8C769.619 247.8 773.919 237 782.519 229.4C791.119 221.6 804.219 216 821.819 212.6L874.619 202.1C874.619 190.9 872.019 182.5 866.819 176.9C861.819 171.3 854.419 168.5 844.619 168.5C835.619 168.5 828.519 170.6 823.319 174.8C818.119 179 814.619 185.1 812.819 193.1L772.319 191C775.319 174 783.019 161 795.419 152C808.019 142.8 824.419 138.2 844.619 138.2C867.819 138.2 885.319 143.9 897.119 155.3C908.919 166.7 914.819 183.2 914.819 204.8V262.1C914.819 266.5 915.519 269.5 916.919 271.1C918.319 272.5 920.519 273.2 923.519 273.2H928.619V302C927.419 302.4 925.419 302.7 922.619 302.9C919.819 303.3 917.019 303.5 914.219 303.5C907.619 303.5 901.619 302.4 896.219 300.2C891.019 298 886.919 294.3 883.919 289.1C880.919 283.7 879.419 276.4 879.419 267.2L883.019 269.6C881.219 276.6 877.719 282.9 872.519 288.5C867.319 293.9 860.719 298.1 852.719 301.1C844.719 304.1 835.619 305.6 825.419 305.6ZM833.819 276.8C842.219 276.8 849.419 275.2 855.419 272C861.419 268.8 866.119 264.3 869.519 258.5C872.919 252.5 874.619 245.5 874.619 237.5V228.8L834.419 236.9C826.219 238.5 820.219 241.1 816.419 244.7C812.819 248.1 811.019 252.6 811.019 258.2C811.019 264.2 812.919 268.8 816.719 272C820.719 275.2 826.419 276.8 833.819 276.8ZM1027.38 305.6C1011.18 305.6 997.085 302.2 985.085 295.4C973.285 288.4 964.085 278.6 957.485 266C951.085 253.4 947.885 238.7 947.885 221.9C947.885 204.9 951.085 190.2 957.485 177.8C964.085 165.2 973.285 155.5 985.085 148.7C997.085 141.7 1011.18 138.2 1027.38 138.2C1040.98 138.2 1053.18 140.6 1063.98 145.4C1074.78 150.2 1083.58 157.1 1090.38 166.1C1097.18 175.1 1101.38 186.1 1102.98 199.1L1061.58 201.2C1060.18 191 1056.38 183.3 1050.18 178.1C1043.98 172.7 1036.38 170 1027.38 170C1015.18 170 1005.78 174.6 999.185 183.8C992.585 193 989.285 205.7 989.285 221.9C989.285 238.1 992.585 250.8 999.185 260C1005.78 269 1015.18 273.5 1027.38 273.5C1036.58 273.5 1044.18 270.8 1050.18 265.4C1056.38 260 1060.18 251.7 1061.58 240.5L1102.98 242.3C1101.38 255.3 1097.28 266.5 1090.68 275.9C1084.08 285.3 1075.38 292.6 1064.58 297.8C1053.78 303 1041.38 305.6 1027.38 305.6ZM1205.34 305.6C1189.34 305.6 1175.34 302.2 1163.34 295.4C1151.54 288.4 1142.44 278.6 1136.04 266C1129.64 253.4 1126.44 238.7 1126.44 221.9C1126.44 204.9 1129.64 190.2 1136.04 177.8C1142.44 165.2 1151.54 155.5 1163.34 148.7C1175.14 141.7 1188.94 138.2 1204.74 138.2C1220.14 138.2 1233.64 141.6 1245.24 148.4C1256.84 155.2 1265.74 165.1 1271.94 178.1C1278.34 190.9 1281.54 206.2 1281.54 224V233H1167.84C1168.64 246.6 1172.34 256.9 1178.94 263.9C1185.74 270.7 1194.74 274.1 1205.94 274.1C1214.34 274.1 1221.24 272.3 1226.64 268.7C1232.24 264.9 1236.14 259.5 1238.34 252.5L1279.14 255.2C1274.94 270.8 1266.24 283.1 1253.04 292.1C1240.04 301.1 1224.14 305.6 1205.34 305.6ZM1167.84 206.6H1240.14C1239.34 194 1235.74 184.6 1229.34 178.4C1222.94 172.2 1214.74 169.1 1204.74 169.1C1194.74 169.1 1186.44 172.4 1179.84 179C1173.24 185.4 1169.24 194.6 1167.84 206.6ZM1322.57 302V89H1363.07V185.3L1444.97 89H1492.97L1413.47 182.6L1498.07 302H1451.27L1386.47 210.2L1363.07 237.2V302H1322.57ZM1525.37 302V141.8H1565.57V302H1525.37ZM1524.77 120.8V86H1566.17V120.8H1524.77ZM1668.24 302C1652.04 302 1640.14 298.3 1632.54 290.9C1625.14 283.3 1621.44 271.5 1621.44 255.5V104H1661.34V251.3C1661.34 258.9 1662.94 264.2 1666.14 267.2C1669.34 270 1674.34 271.4 1681.14 271.4H1703.64V302H1668.24ZM1595.94 172.4V141.8H1703.64V172.4H1595.94Z" fill="#110E40"/>
</svg>
